<svg width="24" height="24" viewBox="0 0 24 24" fill="none" xmlns="http://www.w3.org/2000/svg">
<path opacity="0.5" fill-rule="evenodd" clip-rule="evenodd" d="M9.94358 3.25H14.0564C15.8942 3.24998 17.3498 3.24997 18.489 3.40314C19.6614 3.56076 20.6104 3.89288 21.3588 4.64124C22.1071 5.38961 22.4392 6.33856 22.5969 7.51098C22.75 8.65019 22.75 10.1058 22.75 11.9436V12.0564C22.75 13.8942 22.75 15.3498 22.5969 16.489C22.4392 17.6614 22.1071 18.6104 21.3588 19.3588C20.6104 20.1071 19.6614 20.4392 18.489 20.5969C17.3498 20.75 15.8942 20.75 14.0564 20.75H9.94359C8.10583 20.75 6.65019 20.75 5.51098 20.5969C4.33856 20.4392 3.38961 20.1071 2.64124 19.3588C1.89288 18.6104 1.56076 17.6614 1.40314 16.489C1.24997 15.3498 1.24998 13.8942 1.25 12.0564V11.9436C1.24998 10.1058 1.24997 8.65019 1.40314 7.51098C1.56076 6.33856 1.89288 5.38961 2.64124 4.64124C3.38961 3.89288 4.33856 3.56076 5.51098 3.40314C6.65019 3.24997 8.10582 3.24998 9.94358 3.25ZM5.71085 4.88976C4.70476 5.02502 4.12511 5.27869 3.7019 5.7019C3.27869 6.12511 3.02502 6.70476 2.88976 7.71085C2.75159 8.73851 2.75 10.0932 2.75 12C2.75 13.9068 2.75159 15.2615 2.88976 16.2892C3.02502 17.2952 3.27869 17.8749 3.7019 18.2981C4.12511 18.7213 4.70476 18.975 5.71085 19.1102C6.73851 19.2484 8.09318 19.25 10 19.25H14C15.9068 19.25 17.2615 19.2484 18.2892 19.1102C19.2952 18.975 19.8749 18.7213 20.2981 18.2981C20.7213 17.8749 20.975 17.2952 21.1102 16.2892C21.2484 15.2615 21.25 13.9068 21.25 12C21.25 10.0932 21.2484 8.73851 21.1102 7.71085C20.975 6.70476 20.7213 6.12511 20.2981 5.7019C19.8749 5.27869 19.2952 5.02502 18.2892 4.88976C17.2615 4.75159 15.9068 4.75 14 4.75H10C8.09318 4.75 6.73851 4.75159 5.71085 4.88976Z" fill="#63499D"/>
<path fill-rule="evenodd" clip-rule="evenodd" d="M12.0001 9.25C12.4143 9.25 12.7501 9.58579 12.7501 10V10.7006L13.3566 10.3505C13.7153 10.1434 14.174 10.2663 14.3811 10.625C14.5882 10.9837 14.4653 11.4424 14.1066 11.6495L13.4996 11.9999L14.1068 12.3505C14.4655 12.5576 14.5884 13.0163 14.3813 13.375C14.1742 13.7337 13.7155 13.8566 13.3568 13.6495L12.7501 13.2993V14C12.7501 14.4142 12.4143 14.75 12.0001 14.75C11.5859 14.75 11.2501 14.4142 11.2501 14V13.2987L10.6425 13.6495C10.2837 13.8566 9.82505 13.7337 9.61794 13.375C9.41083 13.0163 9.53374 12.5576 9.89246 12.3505L10.4996 11.9999L9.89269 11.6495C9.53397 11.4424 9.41107 10.9837 9.61817 10.625C9.82528 10.2663 10.284 10.1434 10.6427 10.3505L11.2501 10.7012V10C11.2501 9.58579 11.5859 9.25 12.0001 9.25Z" fill="#63499D"/>
<path fill-rule="evenodd" clip-rule="evenodd" d="M6.73254 9.25C7.14675 9.25 7.48254 9.58579 7.48254 10V10.7006L8.08898 10.3505C8.4477 10.1434 8.9064 10.2663 9.1135 10.625C9.32061 10.9837 9.1977 11.4424 8.83898 11.6495L8.23205 11.9999L8.83922 12.3505C9.19794 12.5576 9.32084 13.0163 9.11374 13.375C8.90663 13.7337 8.44794 13.8566 8.08922 13.6495L7.48254 13.2993V14C7.48254 14.4142 7.14675 14.75 6.73254 14.75C6.31832 14.75 5.98254 14.4142 5.98254 14V13.2987L5.37488 13.6495C5.01616 13.8566 4.55747 13.7337 4.35036 13.375C4.14326 13.0163 4.26616 12.5576 4.62488 12.3505L5.23205 11.9999L4.62512 11.6495C4.2664 11.4424 4.14349 10.9837 4.3506 10.625C4.5577 10.2663 5.0164 10.1434 5.37512 10.3505L5.98254 10.7012V10C5.98254 9.58579 6.31832 9.25 6.73254 9.25Z" fill="#63499D"/>
<path fill-rule="evenodd" clip-rule="evenodd" d="M17.2682 9.25C17.6824 9.25 18.0182 9.58579 18.0182 10V10.7006L18.6246 10.3505C18.9833 10.1434 19.442 10.2663 19.6491 10.625C19.8563 10.9837 19.7333 11.4424 19.3746 11.6495L18.7677 11.9999L19.3749 12.3505C19.7336 12.5576 19.8565 13.0163 19.6494 13.375C19.4423 13.7337 18.9836 13.8566 18.6249 13.6495L18.0182 13.2993V14C18.0182 14.4142 17.6824 14.75 17.2682 14.75C16.854 14.75 16.5182 14.4142 16.5182 14V13.2987L15.9105 13.6495C15.5518 13.8566 15.0931 13.7337 14.886 13.375C14.6789 13.0163 14.8018 12.5576 15.1605 12.3505L15.7677 11.9999L15.1608 11.6495C14.802 11.4424 14.6791 10.9837 14.8862 10.625C15.0933 10.2663 15.552 10.1434 15.9108 10.3505L16.5182 10.7012V10C16.5182 9.58579 16.854 9.25 17.2682 9.25Z" fill="#63499D"/>
</svg>
