<svg width="24" height="25" viewBox="0 0 24 25" fill="none" xmlns="http://www.w3.org/2000/svg">
<path opacity="0.5" fill-rule="evenodd" clip-rule="evenodd" d="M13.1738 1.5L13.2326 1.5C13.6564 1.5 14 1.8436 14 2.26744C14 2.69129 13.6564 3.03488 13.2326 3.03488C10.799 3.03488 7.81852 3.03651 6.48831 3.21536C5.18018 3.39123 4.39153 3.72572 3.80863 4.30863C3.22572 4.89153 2.89123 5.68018 2.71536 6.98831C2.53651 8.31852 2.53488 10.0665 2.53488 12.5C2.53488 14.9335 2.53651 16.6815 2.71536 18.0117C2.89123 19.3198 3.22572 20.1085 3.80863 20.6914C4.39153 21.2743 5.18018 21.6088 6.48831 21.7846C7.81852 21.9635 9.56647 21.9651 12 21.9651C14.4335 21.9651 16.1815 21.9635 17.5117 21.7846C18.8198 21.6088 19.6085 21.2743 20.1914 20.6914C20.7743 20.1085 21.1088 19.3198 21.2846 18.0117C21.4635 16.6815 21.4651 14.9335 21.4651 12.5C21.4651 12.0762 21.8087 11.7326 22.2326 11.7326C22.6564 11.7326 23 12.0762 23 12.5V12.5587C23 14.9208 23 16.7719 22.8058 18.2162C22.6071 19.6945 22.1923 20.8611 21.2767 21.7767C20.3611 22.6923 19.1945 23.1071 17.7162 23.3058C16.2719 23.5 14.4208 23.5 12.0587 23.5H11.9413C9.57921 23.5 7.72811 23.5 6.28379 23.3058C4.80546 23.1071 3.63892 22.6923 2.7233 21.7767C1.80768 20.8611 1.39292 19.6945 1.19416 18.2162C0.999976 16.7719 0.999987 14.9208 1 12.5587V12.4413C0.999987 10.0792 0.999976 8.2281 1.19416 6.78379C1.39292 5.30546 1.80768 4.13892 2.7233 3.2233C3.63892 2.30768 4.80546 1.89292 6.28379 1.69416C7.7281 1.49998 10.8118 1.49999 13.1738 1.5Z" fill="#63499D"/>
<path fill-rule="evenodd" clip-rule="evenodd" d="M13.2092 11.2908C12.9303 11.0118 12.9303 10.5596 13.2092 10.2806L20.5613 2.92857H17.1964C16.8019 2.92857 16.4821 2.60877 16.4821 2.21429C16.4821 1.8198 16.8019 1.5 17.1964 1.5H22.2857C22.6802 1.5 23 1.8198 23 2.21429V7.30357C23 7.69806 22.6802 8.01786 22.2857 8.01786C21.8912 8.01786 21.5714 7.69806 21.5714 7.30357V3.93872L14.2194 11.2908C13.9404 11.5697 13.4882 11.5697 13.2092 11.2908Z" fill="#63499D"/>
</svg>
