<svg width="32" height="32" viewBox="0 0 32 32" fill="none" xmlns="http://www.w3.org/2000/svg">
<path d="M14.5086 0.617772C15.3323 -0.205924 16.6677 -0.205924 17.4914 0.617772L31.3822 14.5086C32.2059 15.3323 32.2059 16.6677 31.3822 17.4914L17.4914 31.3822C16.6677 32.2059 15.3323 32.2059 14.5086 31.3822L0.617772 17.4914C-0.205924 16.6677 -0.205924 15.3323 0.617772 14.5086L14.5086 0.617772Z" fill="white"/>
<path d="M14.5086 4.83619C15.3323 4.01249 16.6677 4.01249 17.4914 4.83619L27.1638 14.5086C27.9875 15.3323 27.9875 16.6677 27.1638 17.4914L17.4914 27.1638C16.6677 27.9875 15.3323 27.9875 14.5086 27.1638L4.83619 17.4914C4.01249 16.6677 4.01249 15.3323 4.83619 14.5086L14.5086 4.83619Z" fill="#D5E4F6"/>
</svg>
