<svg width="24" height="24" viewBox="0 0 24 24" fill="none" xmlns="http://www.w3.org/2000/svg">
<path fill-rule="evenodd" clip-rule="evenodd" d="M13.4858 5.3298C13.5996 4.93152 14.0147 4.7009 14.413 4.81469L14.207 5.53584C14.413 4.81469 14.4134 4.8148 14.4137 4.8149L14.4145 4.81511L14.416 4.81555L14.4193 4.81652L14.4271 4.81884L14.4469 4.825C14.4619 4.82982 14.4808 4.8361 14.5032 4.84407C14.5481 4.86001 14.6075 4.88267 14.6803 4.91387C14.826 4.97631 15.025 5.07273 15.2696 5.21744C15.759 5.50712 16.4272 5.9883 17.2122 6.77327C17.9972 7.55825 18.4783 8.22643 18.768 8.7159C18.9127 8.96041 19.0091 9.15947 19.0716 9.30516C19.1028 9.37796 19.1255 9.43732 19.1414 9.48223C19.1494 9.50469 19.1556 9.52351 19.1605 9.53859L19.1666 9.55838L19.1689 9.56613L19.1699 9.56947L19.1704 9.571L19.1706 9.57173C19.1707 9.57208 19.1708 9.57244 18.4496 9.77848L19.1708 9.57244C19.2846 9.97071 19.0539 10.3858 18.6557 10.4996C18.2608 10.6124 17.8493 10.3867 17.7314 9.99463L17.7277 9.98385C17.7224 9.96882 17.7114 9.93924 17.6929 9.89604C17.6559 9.8097 17.5888 9.66847 17.4772 9.47988C17.2542 9.10314 16.8515 8.53389 16.1515 7.83393C15.4516 7.13398 14.8823 6.73128 14.5056 6.50831C14.317 6.39669 14.1758 6.32959 14.0894 6.29259C14.0462 6.27408 14.0166 6.26304 14.0016 6.25771L13.9908 6.25402C13.5988 6.13614 13.373 5.72469 13.4858 5.3298Z" fill="#63499D"/>
<path fill-rule="evenodd" clip-rule="evenodd" d="M13.2582 0.889618C13.3192 0.479923 13.7008 0.197265 14.1105 0.258283L14 1.0001C14.1105 0.258283 14.1109 0.258345 14.1113 0.258408L14.1122 0.258542L14.1141 0.258838L14.1187 0.259545L14.1303 0.261439C14.1392 0.262927 14.1504 0.264874 14.1638 0.267359C14.1906 0.272329 14.2263 0.279446 14.2706 0.28932C14.359 0.30907 14.4814 0.339841 14.6348 0.386502C14.9415 0.479862 15.3712 0.636629 15.899 0.895477C16.9558 1.41377 18.3981 2.33753 20.0303 3.96977C21.6625 5.60201 22.5863 7.04432 23.1046 8.1011C23.3635 8.62888 23.5202 9.05857 23.6136 9.36532C23.6602 9.51864 23.691 9.64108 23.7108 9.72952C23.7206 9.77374 23.7278 9.80945 23.7327 9.83627C23.7352 9.84967 23.7372 9.86086 23.7386 9.86976L23.7405 9.88141L23.7412 9.88595L23.7415 9.88789L23.7417 9.88878C23.7417 9.8892 23.7418 9.88962 23 10.0001L23.7418 9.88962C23.8028 10.2993 23.5202 10.6809 23.1105 10.7419C22.7027 10.8027 22.3228 10.5229 22.259 10.1163L22.2578 10.1096C22.2561 10.1005 22.2527 10.0826 22.2468 10.0564C22.2351 10.004 22.2139 9.91828 22.1786 9.80207C22.1079 9.56976 21.9803 9.21507 21.7579 8.76161C21.3136 7.85588 20.4874 6.54819 18.9696 5.03043C17.4519 3.51267 16.1442 2.68643 15.2385 2.24223C14.785 2.01982 14.4303 1.89222 14.198 1.82151C14.0818 1.78614 13.996 1.76496 13.9437 1.75327C13.9175 1.74742 13.8996 1.74394 13.8905 1.74224L13.8837 1.74104C13.4772 1.67733 13.1974 1.29739 13.2582 0.889618ZM22.2591 10.1168C22.2591 10.1168 22.2591 10.1168 22.2591 10.1167L22.2591 10.1168Z" fill="#63499D"/>
<path opacity="0.5" fill-rule="evenodd" clip-rule="evenodd" d="M4.7177 3.0919C5.94388 1.80096 7.9721 2.04283 8.98569 3.47641L10.2467 5.25989C11.0574 6.40656 10.9889 8.00073 10.0214 9.0194L9.7765 9.27719C9.77582 9.27897 9.7751 9.2809 9.77436 9.28299C9.76142 9.31935 9.7287 9.43513 9.7609 9.65489C9.82765 10.1104 10.1793 11.0361 11.607 12.5392C13.0391 14.0469 13.9078 14.4023 14.3103 14.4677C14.484 14.4959 14.5748 14.4714 14.6038 14.4612L15.0124 14.031C15.8862 13.111 17.2485 12.9298 18.347 13.5621L20.2575 14.6617C21.8904 15.6016 22.2705 17.9008 20.9655 19.2747L19.545 20.7703C19.1016 21.2371 18.497 21.6355 17.75 21.7092C15.9261 21.8893 11.701 21.6548 7.27161 16.9915C3.13844 12.64 2.35326 8.85513 2.25401 7.00591L2.92011 6.97016L2.25401 7.00591C2.20497 6.09224 2.61224 5.30855 3.1481 4.7444L4.7177 3.0919ZM7.7609 4.34237C7.24855 3.61773 6.32812 3.57449 5.80528 4.12493L4.23568 5.77743C3.90429 6.12632 3.73042 6.52621 3.75185 6.92552C3.83289 8.43533 4.48307 11.8776 8.35919 15.9584C12.4234 20.2373 16.1676 20.3581 17.6026 20.2165C17.8864 20.1885 18.1783 20.031 18.4574 19.7373L19.8779 18.2417C20.4907 17.5965 20.3301 16.4342 19.5092 15.9618L17.5987 14.8621C17.086 14.567 16.4854 14.6582 16.1 15.064L15.6445 15.5435L15.1174 15.0428C15.6445 15.5435 15.6438 15.5442 15.6432 15.545L15.6417 15.5464L15.6388 15.5495L15.6324 15.556L15.6181 15.5701C15.6078 15.5801 15.5959 15.591 15.5825 15.6028C15.5556 15.6264 15.5223 15.6533 15.4824 15.6816C15.4022 15.7384 15.2955 15.8009 15.1606 15.8541C14.8846 15.963 14.5201 16.0214 14.0699 15.9483C13.1923 15.8058 12.0422 15.1755 10.5194 13.5722C8.99202 11.9642 8.40746 10.7645 8.27675 9.87234C8.21022 9.41827 8.26346 9.05468 8.36116 8.78011C8.40921 8.64508 8.46594 8.53742 8.51826 8.45566C8.54435 8.41489 8.56922 8.38075 8.5912 8.35298C8.60219 8.33909 8.61246 8.32678 8.62182 8.31603L8.63514 8.30104L8.64125 8.29441L8.64415 8.2913L8.64556 8.2898C8.64625 8.28907 8.64694 8.28835 9.17861 8.79333L8.64695 8.28834L8.93376 7.98637C9.3793 7.51731 9.44403 6.72292 9.02189 6.12586L7.7609 4.34237Z" fill="#63499D"/>
</svg>
